<?xml version="1.0" standalone="no"?>
<!DOCTYPE svg PUBLIC "-//W3C//DTD SVG 1.1//EN" "http://www.w3.org/Graphics/SVG/1.1/DTD/svg11.dtd" >
<svg xmlns="http://www.w3.org/2000/svg">
<metadata>Generated by IcoMoon</metadata>
<defs>
<font id="icomoon" horiz-adv-x="1024">
<font-face units-per-em="1024" ascent="960" descent="-64" />
<missing-glyph horiz-adv-x="1024" />
<glyph unicode="&#x20;" horiz-adv-x="512" d="" />
<glyph unicode="&#xe900;" glyph-name="sar" d="M312.4 828.601c-3.6-1.4-11.4-17.4-15.6-31.6-6.2-21.6-4.6-43.8 6.8-95 15.6-69.8 22.8-117 33.6-223 7.2-69.4 7.6-116 1.4-136-14.4-45.8-54.4-65.8-140.8-70.2-44.8-2.4-85.2 4.6-108.8 18.4-10 5.8-25 21.2-30.2 31-2.6 4.8-3.8 11-3.8 21.8 0 19.4 8.6 45 27.4 81.8 7.4 14.8 13.6 29.4 13.6 32.4 0 14-11.2 23.2-25.8 21.2-11-1.4-12.6-3-25.2-24.2-15.8-27.2-28.2-58.4-40.2-103.2-5.4-19.8-4.8-57 1-74 17-48.8 55.8-77.6 114.2-84 25.6-3 95.8-3 123 0 106.8 11.2 157.6 72.2 152.4 182.8-0.8 14.4-6.8 74.4-13.4 133.2-18.2 161-18.8 166.4-17.2 174.4 0.8 4.4 5.6 12.6 12.2 21 28.2 35.2 25 59.2-11.6 86.4-10.2 7.4-24.4 19.2-32 25.8-13 12-15.4 13.2-21 11zM449.2 762.401c-9.2-17.6-19.8-48.4-20.8-59.6-1.2-15.2 3-46.4 16.8-126.6 5.8-34.4 14-90.6 17.8-124.8 7.8-67.6 11.8-96 15.2-108.4 6-21.6 19.6-38.2 37.6-46.8l11.2-5.2 120.2-0.6c105.2-0.4 120.8-0.2 123.4 2.4 4.2 4.4 6.4 36.4 6.2 94.2 0 51.4-2.2 73.2-9.8 102.4-6.4 24.2-16.2 43.4-30.2 58.4-13.6 14.8-19.8 16-27.4 5.8-22.2-29.6-22-61.4 0.6-94.6 10.2-15 14.4-25.6 20.8-53.8l6.6-28.2-96-0.6-96.2-0.4-9 4.4c-17 8.4-16.6 6.6-27.2 137.6-5 63.2-10 121.8-11.2 130-4.2 29.4-26.4 110.2-32.2 117.6-1.2 1.2-4.6 2.4-7.8 2.4-4.2 0-6.4-1.4-8.6-5.6zM874.4 521.601c-13.4-4.6-24.4-20.2-24.4-34.6 0-11.8 4.2-18.6 31.8-52 38.2-46.2 59.8-74.4 65.2-85 8.4-16.8 11.6-31 10.6-49.8-1-21.2-6.8-33.8-28.6-63.2-53.8-72.2-113.2-112-178.2-119-23.6-2.4-44.4-0.6-84 7.4-27.6 5.6-35.2 5.2-38.8-1.6-4.2-7.4 1.4-12 25.2-20 12-4.2 35.4-12 51.8-17.8 54-18.4 82.8-22.8 114.6-17.2 57 10 98.2 41.4 157.4 120.2 31 41.4 38.6 57.4 44 93 6.6 43 0.4 82.8-18.2 118-11 20.8-86.8 113.8-97.2 119.2-7.8 4-23 5.2-31.2 2.4zM553.6 258.601c-25.2-22.6-37.6-35.6-37.6-39 0-1.8 10.8-16 24.2-31.4 18.8-22 25.2-28.2 29-28.2 3.4 0 11.8 6.2 27.4 20.4 12.2 11 23.2 21.4 24 22.8 1.2 2 7.8-4.2 22.8-21.2 17-19.2 22.2-24 26.4-24 3.8 0 11 5.6 27.8 21.2 12.4 11.6 23.4 23 24.6 25.2 2.8 5 1.2 7.2-25.2 37.4-17.4 19.8-22.2 24.2-26.6 24.2-4.2 0-11.2-5.6-29.8-23l-24.2-23-20.2 23.8c-18.6 21.8-23.4 26.2-28.2 26.2-1 0-7.4-5.2-14.4-11.4z" />
<glyph unicode="&#xe901;" glyph-name="dollar" d="M513.485-63.999c34.34 0 62.218 26.226 62.218 58.622 0 32.353 0 58.579 0 58.579 169.867 15.561 282.317 105.284 282.317 251.242v2.387c0 148.345-95.706 216.524-285.908 260.773v138.767c27.383-6.691 55.74-16.174 83.453-28.474 44.601-19.77 98.801-7.378 125.88 36.892 27.1 44.244 12.461 106.393-37.744 128.932-49.992 22.418-104.858 37.861-165.633 44.505v35.9c0 19.792-27.835 35.874-62.196 35.874s-62.218-15.278-62.218-34.053c0-18.848 0-34.1 0-34.1-183.063-13.174-285.934-111.267-285.934-252.425v-2.413c0-148.324 98.093-214.159 290.708-258.382v-143.571c-46.209 7.448-91.449 22.796-137.493 46.305-49.048 25.022-109.136 16.174-138.863-27.761-29.748-43.914-17.735-106.301 31.713-130.563 72.649-35.687 154.754-59.001 237.455-67.47v-59.805c0.026-32.992 27.883-59.762 62.244-59.762zM570.881 359.472c62.244-17.926 80.166-35.9 80.166-68.179v-2.413c0-34.692-25.113-55.005-80.166-61.014v131.606zM378.261 654.984v2.387c0 31.096 22.748 55.031 81.349 59.805v-129.215c-64.579 17.952-81.349 35.927-81.349 67.023z" />
<glyph unicode="&#xe902;" glyph-name="home" d="M1024 369.556l-512 397.426-512-397.428v162.038l512 397.426 512-397.428zM896 384v-384h-256v256h-256v-256h-256v384l384 288z" />
<glyph unicode="&#xe903;" glyph-name="logo" d="M319.792 57.925c-2.589 0.362-5.017 0.967-5.395 1.344s-0.743 23.534-0.812 51.459c-0.091 36.854-0.512 53.989-1.538 62.506-0.777 6.454-1.090 12.057-0.695 12.452 0.698 0.698 7.154 1.609 20.868 2.945 6.633 0.646 6.734 0.619 7.75-2.053 0.566-1.489 1.029-4.478 1.029-6.643 0-2.175 0.488-3.935 1.091-3.935 0.6 0 2.84 1.497 4.978 3.327 5.215 4.464 13.727 8.519 20.519 9.774 10.996 2.033 26.057-1.976 36.271-9.654 16.931-12.728 24.479-33.658 19.601-54.354-3.862-16.386-17.252-31.423-32.801-36.838-15.778-5.495-32.844-2.567-44.127 7.569l-3.968 3.565-0.682-2.444c-0.375-1.344-0.727-10.416-0.782-20.159-0.092-16.435-0.239-17.79-2.034-18.75-2.087-1.117-11.676-1.172-19.274-0.11zM379.602 110.907c5.747 2.61 12.045 9.536 14.403 15.838 2.841 7.595 2.679 17.27-0.398 23.755-2.807 5.915-9.62 12.786-14.825 14.953-5.091 2.119-15.282 1.959-20.282-0.318-4.964-2.261-11.066-8.907-13.782-15.012-2.98-6.699-2.88-17.864 0.225-24.902 2.643-5.992 10.503-13.706 15.414-15.13 5.49-1.591 14.816-1.195 19.245 0.816zM737.792 57.925c-2.589 0.362-5.017 0.967-5.395 1.344s-0.743 23.534-0.812 51.459c-0.091 36.854-0.512 53.989-1.538 62.506-0.777 6.454-1.112 12.035-0.745 12.402 0.79 0.79 18.543 3.246 23.972 3.315 3.154 0.040 3.935-0.374 4.75-2.517 0.536-1.411 0.975-4.336 0.975-6.5 0-2.175 0.488-3.935 1.091-3.935 0.6 0 2.84 1.497 4.978 3.327 9.155 7.836 20.848 11.348 32.422 9.737 12.972-1.805 21.146-5.861 30.339-15.053 12.815-12.815 17.867-30.947 13.631-48.918-8.319-35.291-51.807-51.837-76.928-29.269l-3.968 3.565-0.682-2.444c-0.375-1.344-0.727-10.443-0.782-20.219l-0.1-17.775-2.565-0.975c-2.799-1.064-11.224-1.087-18.643-0.050zM797.521 110.871c5.315 2.415 12.899 10.98 14.887 16.813 2.4 7.042 2.066 16.768-0.782 22.816-2.911 6.182-8.656 12.155-14.045 14.603-5.428 2.465-15.703 2.481-21.081 0.032-4.944-2.252-11.044-8.881-13.813-15.012-2.994-6.629-2.878-17.782 0.259-24.902 2.64-5.992 10.498-13.706 15.412-15.13 5.442-1.577 14.816-1.195 19.164 0.78zM478.156 87.036c-23.054 3.138-39.421 16.524-44.623 36.499-2.206 8.47-1.995 22.757 0.452 30.682 2.409 7.798 8.083 16.681 14.641 22.92 8.72 8.295 16.922 12.265 28.741 13.909 21.636 3.009 41.821-7.507 51.327-26.741 3.209-6.493 3.753-8.633 4.114-16.183 0.394-8.246 0.278-8.865-2.232-11.847-1.972-2.343-3.979-3.413-7.862-4.189-5.18-1.036-30.352-3.34-50.991-4.668-5.927-0.381-10.958-0.987-11.18-1.345-0.874-1.414 2.935-7.283 6.622-10.203 11.935-9.453 31.78-9.134 48.099 0.773 3.171 1.925 6.537 3.351 7.481 3.169 2.11-0.406 9.108-11.474 9.192-14.537 0.121-4.384-14.345-13.653-25.939-16.62-7.514-1.923-20.191-2.659-27.844-1.618zM489.926 148.519c7.384 0.825 13.626 1.7 13.87 1.944 1.136 1.136-1.102 7.452-3.798 10.724-11.823 14.344-36.446 7.687-40.457-10.936l-0.7-3.25 8.829 0.010c4.856 0.005 14.871 0.685 22.256 1.509zM896.156 87.036c-22.979 3.128-39.438 16.59-44.623 36.499-2.197 8.434-1.995 22.759 0.431 30.61 4.504 14.573 17.163 28.387 31.019 33.849 24.614 9.702 52.259-0.517 63.627-23.519 3.3-6.676 3.835-8.763 4.198-16.353 0.394-8.246 0.278-8.865-2.232-11.847-1.972-2.343-3.979-3.413-7.862-4.189-5.18-1.036-30.352-3.34-50.991-4.668-5.927-0.381-10.958-0.987-11.18-1.345-0.937-1.517 3.106-7.476 7.187-10.592 6.719-5.13 12.894-6.799 23.129-6.249 9.691 0.52 17.717 3.007 25.201 7.81 2.675 1.717 5.66 2.968 6.633 2.781 2.149-0.414 9.159-11.444 9.244-14.547 0.074-2.704-8.039-9.471-15.439-12.877-10.596-4.878-26.033-7.035-38.344-5.36zM913.357 149.097l8.857 1.198-0.546 3.362c-1.272 7.836-9.514 14.488-18.784 15.158-12.13 0.877-22.859-7.036-25.377-18.718l-0.733-3.403 13.863 0.602c7.625 0.331 17.849 1.141 22.72 1.8zM80.952 90.048c-2.2 2.2-2.211 2.374-1.528 24.834 0.502 16.496 0.266 28.698-0.871 45.080-1.338 19.273-1.36 22.661-0.156 23.864 1.075 1.075 4.613 1.386 15.161 1.33 7.77-0.041 14.195-0.51 14.762-1.077 0.672-0.672 0.585-8.84-0.264-24.695-0.697-13.030-1.108-33.932-0.912-46.449s-0.018-23.135-0.475-23.596c-0.457-0.461-5.932-0.989-12.166-1.173-10.603-0.312-11.478-0.191-13.551 1.882zM131 88.729c-0.825 0.314-1.831 1.066-2.235 1.671s-0.742 15.556-0.75 33.225c-0.013 27.96-0.287 33.722-2.108 44.446-1.846 10.872-1.917 12.45-0.597 13.414 0.823 0.601 6.691 1.938 13.041 2.969 13.259 2.154 14.085 1.896 15.186-4.762 0.381-2.306 0.891-4.526 1.132-4.934s2.783 1.029 5.649 3.192c7.070 5.338 17.173 9.917 24.472 11.093 7.809 1.258 18.713-0.251 25.060-3.467 4.604-2.333 12.15-9.525 12.15-11.579 0-1.956 2.261-0.937 6.813 3.069 10.41 9.163 25.745 13.84 39.147 11.939 8.739-1.239 12.592-2.795 17.422-7.036 8.766-7.696 9.618-12.703 9.618-56.484 0-32.721-0.133-35.484-1.75-36.311-2.262-1.157-24.29-0.535-25.547 0.722-0.567 0.567-1.008 14.556-1.080 34.28-0.137 37.344-0.347 38.556-7.157 41.401-9.178 3.835-21.514 0.432-29.383-8.104l-4.083-4.43v-31.4c0-23.926-0.298-31.635-1.25-32.388-1.592-1.259-24.641-0.766-25.962 0.555-0.592 0.592-1.039 14.153-1.133 34.333-0.137 29.366-0.359 33.728-1.861 36.47-2.299 4.199-7.284 6.385-14.561 6.385-4.831 0-7.31-0.673-13.046-3.543-3.895-1.948-8.23-4.908-9.634-6.577l-2.553-3.034v-63.896l-2.565-0.975c-2.709-1.030-19.881-1.218-22.435-0.246zM548.223 89.557c-2.219 1.554-2.223 1.612-2.223 33.875 0 28.15-0.269 33.899-2.082 44.576-1.728 10.176-1.856 12.462-0.75 13.457 0.733 0.66 6.596 2.025 13.030 3.033 13.43 2.104 14.238 1.852 15.339-4.805 0.381-2.306 0.891-4.526 1.132-4.934s2.783 1.029 5.649 3.192c21.999 16.609 49.513 15.173 61.163-3.194l1.74-2.743 4.835 4.347c10.778 9.691 26.224 14.585 39.903 12.645 8.739-1.239 12.592-2.795 17.422-7.036 8.766-7.696 9.618-12.703 9.618-56.484 0-32.724-0.133-35.483-1.75-36.305-2.331-1.185-24.221-0.61-25.5 0.669-0.627 0.627-1.050 13.517-1.127 34.327-0.137 37.344-0.347 38.556-7.157 41.401-9.178 3.835-21.514 0.432-29.383-8.104l-4.083-4.43v-31.4c0-23.926-0.298-31.635-1.25-32.388-1.558-1.232-24.627-0.779-25.915 0.508-0.529 0.529-1.018 15.359-1.133 34.333-0.178 29.352-0.409 33.78-1.908 36.518-2.299 4.199-7.284 6.385-14.561 6.385-4.831 0-7.31-0.673-13.046-3.543-3.895-1.948-8.23-4.908-9.634-6.577l-2.553-3.034v-63.896l-2.565-0.975c-4.292-1.632-20.637-1.222-23.212 0.581zM87.5 196.108c-7.164 1.734-10.5 5.938-10.5 13.232 0 4.332 0.436 5.331 3.786 8.681 8.193 8.193 21.417 7.067 27.316-2.326 3.648-5.808 1.183-14.945-4.875-18.078-3.823-1.977-10.965-2.662-15.727-1.509zM360.564 246.15c-31.868 2.807-64.48 14.442-91.646 32.698-45.437 30.534-76.409 80.343-84.038 135.152-1.729 12.419-1.457 41.399 0.506 54 11.114 71.326 59.407 129.922 127.114 154.234 12.506 4.491 30.875 8.944 33.204 8.050 1.341-0.515 1.465-2.117 0.879-11.372l-0.682-10.774 4.299-0.528c2.365-0.29 27.474-1.002 55.799-1.58s61.236-1.34 73.137-1.691l21.637-0.639 0.579 3.901c0.319 2.145 0.869 8.229 1.222 13.518s1.028 10.24 1.498 11c0.722 1.169 28.49 1.383 179.308 1.383 98.149 0 178.828-0.375 179.286-0.833 1.2-1.2 1.558-132.805 0.366-134.667-0.845-1.32-18.786-1.531-149.838-1.76l-148.878-0.26 2.336-8.74c5.813-21.756 7.481-53.905 3.954-76.24-14.224-90.081-86.196-157.11-177.108-164.945-13.551-1.168-18.766-1.153-32.936 0.095zM403.619 309.513c18.72 3.189 39.451 11.664 54.161 22.14 3.696 2.632 10.688 8.606 15.538 13.275 19.028 18.317 30.883 38.844 37.424 64.798 2.5 9.921 2.716 12.357 2.729 30.774 0.013 18.752-0.163 20.686-2.827 31-6.63 25.666-16.557 43.309-35.067 62.325-8.615 8.851-8.978 9.397-7.136 10.75 1.662 1.221 26.546 1.425 173.25 1.425h171.309v27h-221.869c-244.132 0-228.907 0.376-249.508-6.159-36.595-11.609-67.266-39.986-81.972-75.841-7.415-18.078-10.178-34.737-9.356-56.409 1.068-28.177 9.202-51.139 26.244-74.091 6.41-8.633 20.704-22.544 29.681-28.885 14.505-10.247 35.29-18.837 53.28-22.020 10.848-1.919 33.092-1.961 44.119-0.082zM369.983 335.963c-24.136 3.060-46.074 14.091-63.055 31.706-13.743 14.256-22.093 29.681-27.132 50.123-2.738 11.106-2.96 32.84-0.449 43.993 2.416 10.728 7.711 24.088 13.261 33.456 6.661 11.243 23.837 28.449 35 35.059 35.098 20.784 75.671 20.444 110.196-0.925 4.581-2.835 11.771-8.834 17.765-14.82 15.195-15.176 23.347-29.802 28.619-51.349 3.005-12.282 3.005-33.133 0-45.415-5.362-21.912-13.418-36.234-29.136-51.793-15.262-15.108-31.943-24.27-51.791-28.445-8.855-1.863-25.036-2.636-33.279-1.592zM352.161 699.25c-27.258 51.241-25.815 48.257-24.246 50.147 1.969 2.372 22.101 13.748 23.736 13.412 0.829-0.17 12.313-20.667 25.594-45.681 18.918-35.629 23.873-45.722 23.076-47-1.288-2.067-21.262-14.055-23.487-14.097-1.185-0.022-8.308 12.454-24.673 43.219zM472.705 662.779c-9.766 5.565-11.731 7.074-11.427 8.771 0.724 4.035 49.831 91.45 51.374 91.45 0.83 0 6.904-3.037 13.497-6.749 10.103-5.688 11.925-7.078 11.588-8.84-0.22-1.15-11.53-22.188-25.133-46.751-17.566-31.719-25.222-44.652-26.419-44.632-0.927 0.016-6.994 3.053-13.481 6.75zM417.571 660.571c-1.398 1.398-1.571 9.21-1.571 70.929s0.173 69.53 1.571 70.929c2.293 2.293 24.565 2.293 26.857 0 1.398-1.398 1.571-9.21 1.571-70.929s-0.173-69.53-1.571-70.929c-1.252-1.252-3.983-1.571-13.429-1.571s-12.177 0.32-13.429 1.571zM258.714 749.25c-8.928 14.001-12.052 19.989-11.141 21.358 0.757 1.139 83.351 42.721 155.427 78.251l15.5 7.641 27-0.014 82.907-39.019c45.599-21.46 83.39-39.783 83.979-40.718 0.851-1.35-0.159-4.191-4.907-13.805-3.288-6.658-6.511-12.549-7.161-13.091-0.823-0.686-26.537 10.882-84.624 38.068l-83.443 39.053-83.699-41.487c-46.034-22.818-84.327-41.487-85.095-41.487s-2.902 2.363-4.744 5.25z" />
<glyph unicode="&#xe905;" glyph-name="pencil" d="M864 960c88.364 0 160-71.634 160-160 0-36.020-11.91-69.258-32-96l-64-64-224 224 64 64c26.742 20.090 59.978 32 96 32zM64 224l-64-288 288 64 592 592-224 224-592-592zM715.578 596.422l-448-448-55.156 55.156 448 448 55.156-55.156z" />
<glyph unicode="&#xe920;" glyph-name="books" horiz-adv-x="1152" d="M224 832h-192c-17.6 0-32-14.4-32-32v-704c0-17.6 14.4-32 32-32h192c17.6 0 32 14.4 32 32v704c0 17.6-14.4 32-32 32zM192 640h-128v64h128v-64zM544 832h-192c-17.6 0-32-14.4-32-32v-704c0-17.6 14.4-32 32-32h192c17.6 0 32 14.4 32 32v704c0 17.6-14.4 32-32 32zM512 640h-128v64h128v-64zM765.088 782.52l-171.464-86.394c-15.716-7.918-22.096-27.258-14.178-42.976l287.978-571.548c7.918-15.718 27.258-22.098 42.976-14.178l171.464 86.392c15.716 7.92 22.096 27.26 14.178 42.974l-287.978 571.55c-7.92 15.718-27.26 22.1-42.976 14.18z" />
<glyph unicode="&#xe93b;" glyph-name="coin-dollar" d="M480 896c-265.096 0-480-214.904-480-480 0-265.098 214.904-480 480-480 265.098 0 480 214.902 480 480 0 265.096-214.902 480-480 480zM480 32c-212.078 0-384 171.922-384 384s171.922 384 384 384c212.078 0 384-171.922 384-384s-171.922-384-384-384zM512 448v128h128v64h-128v64h-64v-64h-128v-256h128v-128h-128v-64h128v-64h64v64h128.002l-0.002 256h-128zM448 448h-64v128h64v-128zM576.002 256h-64.002v128h64.002v-128z" />
<glyph unicode="&#xe940;" glyph-name="calculator" d="M384 896h-320c-35.2 0-64-28.8-64-64v-320c0-35.2 28.796-64 64-64h320c35.2 0 64 28.8 64 64v320c0 35.2-28.8 64-64 64zM384 640h-320v64h320v-64zM896 896h-320c-35.204 0-64-28.8-64-64v-832c0-35.2 28.796-64 64-64h320c35.2 0 64 28.8 64 64v832c0 35.2-28.8 64-64 64zM896 320h-320v64h320v-64zM896 512h-320v64h320v-64zM384 384h-320c-35.2 0-64-28.8-64-64v-320c0-35.2 28.796-64 64-64h320c35.2 0 64 28.8 64 64v320c0 35.2-28.8 64-64 64zM384 128h-128v-128h-64v128h-128v64h128v128h64v-128h128v-64z" />
<glyph unicode="&#xe954;" glyph-name="printer" d="M256 896h512v-128h-512v128zM960 704h-896c-35.2 0-64-28.8-64-64v-320c0-35.2 28.794-64 64-64h192v-256h512v256h192c35.2 0 64 28.8 64 64v320c0 35.2-28.8 64-64 64zM128 512c-35.346 0-64 28.654-64 64s28.654 64 64 64 64-28.654 64-64-28.652-64-64-64zM704 64h-384v320h384v-320z" />
<glyph unicode="&#xe971;" glyph-name="user" d="M576 253.388v52.78c70.498 39.728 128 138.772 128 237.832 0 159.058 0 288-192 288s-192-128.942-192-288c0-99.060 57.502-198.104 128-237.832v-52.78c-217.102-17.748-384-124.42-384-253.388h896c0 128.968-166.898 235.64-384 253.388z" />
<glyph unicode="&#xe972;" glyph-name="users" horiz-adv-x="1152" d="M768 189.388v52.78c70.498 39.728 128 138.772 128 237.832 0 159.058 0 288-192 288s-192-128.942-192-288c0-99.060 57.502-198.104 128-237.832v-52.78c-217.102-17.748-384-124.42-384-253.388h896c0 128.968-166.898 235.64-384 253.388zM327.196 164.672c55.31 36.15 124.080 63.636 199.788 80.414-15.054 17.784-28.708 37.622-40.492 59.020-30.414 55.234-46.492 116.058-46.492 175.894 0 86.042 0 167.31 30.6 233.762 29.706 64.504 83.128 104.496 159.222 119.488-16.914 76.48-61.94 126.75-181.822 126.75-192 0-192-128.942-192-288 0-99.060 57.502-198.104 128-237.832v-52.78c-217.102-17.748-384-124.42-384-253.388h279.006c14.518 12.91 30.596 25.172 48.19 36.672z" />
<glyph unicode="&#xe986;" glyph-name="search" d="M992.262 88.604l-242.552 206.294c-25.074 22.566-51.89 32.926-73.552 31.926 57.256 67.068 91.842 154.078 91.842 249.176 0 212.078-171.922 384-384 384-212.076 0-384-171.922-384-384s171.922-384 384-384c95.098 0 182.108 34.586 249.176 91.844-1-21.662 9.36-48.478 31.926-73.552l206.294-242.552c35.322-39.246 93.022-42.554 128.22-7.356s31.892 92.898-7.354 128.22zM384 320c-141.384 0-256 114.616-256 256s114.616 256 256 256 256-114.616 256-256-114.614-256-256-256z" />
<glyph unicode="&#xe994;" glyph-name="cog" d="M933.79 349.75c-53.726 93.054-21.416 212.304 72.152 266.488l-100.626 174.292c-28.75-16.854-62.176-26.518-97.846-26.518-107.536 0-194.708 87.746-194.708 195.99h-201.258c0.266-33.41-8.074-67.282-25.958-98.252-53.724-93.056-173.156-124.702-266.862-70.758l-100.624-174.292c28.97-16.472 54.050-40.588 71.886-71.478 53.638-92.908 21.512-211.92-71.708-266.224l100.626-174.292c28.65 16.696 61.916 26.254 97.4 26.254 107.196 0 194.144-87.192 194.7-194.958h201.254c-0.086 33.074 8.272 66.57 25.966 97.218 53.636 92.906 172.776 124.594 266.414 71.012l100.626 174.29c-28.78 16.466-53.692 40.498-71.434 71.228zM512 240.668c-114.508 0-207.336 92.824-207.336 207.334 0 114.508 92.826 207.334 207.336 207.334 114.508 0 207.332-92.826 207.332-207.334-0.002-114.51-92.824-207.334-207.332-207.334z" />
<glyph unicode="&#xe995;" glyph-name="cog1" d="M933.79 349.75c-53.726 93.054-21.416 212.304 72.152 266.488l-100.626 174.292c-28.75-16.854-62.176-26.518-97.846-26.518-107.536 0-194.708 87.746-194.708 195.99h-201.258c0.266-33.41-8.074-67.282-25.958-98.252-53.724-93.056-173.156-124.702-266.862-70.758l-100.624-174.292c28.97-16.472 54.050-40.588 71.886-71.478 53.638-92.908 21.512-211.92-71.708-266.224l100.626-174.292c28.65 16.696 61.916 26.254 97.4 26.254 107.196 0 194.144-87.192 194.7-194.958h201.254c-0.086 33.074 8.272 66.57 25.966 97.218 53.636 92.906 172.776 124.594 266.414 71.012l100.626 174.29c-28.78 16.466-53.692 40.498-71.434 71.228zM512 240.668c-114.508 0-207.336 92.824-207.336 207.334 0 114.508 92.826 207.334 207.336 207.334 114.508 0 207.332-92.826 207.332-207.334-0.002-114.51-92.824-207.334-207.332-207.334z" />
<glyph unicode="&#xe9ac;" glyph-name="bin" d="M128 640v-640c0-35.2 28.8-64 64-64h576c35.2 0 64 28.8 64 64v640h-704zM320 64h-64v448h64v-448zM448 64h-64v448h64v-448zM576 64h-64v448h64v-448zM704 64h-64v448h64v-448zM848 832h-208v80c0 26.4-21.6 48-48 48h-224c-26.4 0-48-21.6-48-48v-80h-208c-26.4 0-48-21.6-48-48v-80h832v80c0 26.4-21.6 48-48 48zM576 832h-192v63.198h192v-63.198z" />
<glyph unicode="&#xe9bd;" glyph-name="menu" d="M64 768h896v-192h-896zM64 512h896v-192h-896zM64 256h896v-192h-896z" />
<glyph unicode="&#xe9c0;" glyph-name="menu4" horiz-adv-x="1408" d="M0 768h896v-192h-896v192zM0 512h896v-192h-896v192zM0 256h896v-192h-896v192zM992 320l192 192 192-192z" />
<glyph unicode="&#xea0a;" glyph-name="plus" d="M992 576h-352v352c0 17.672-14.328 32-32 32h-192c-17.672 0-32-14.328-32-32v-352h-352c-17.672 0-32-14.328-32-32v-192c0-17.672 14.328-32 32-32h352v-352c0-17.672 14.328-32 32-32h192c17.672 0 32 14.328 32 32v352h352c17.672 0 32 14.328 32 32v192c0 17.672-14.328 32-32 32z" />
<glyph unicode="&#xea0c;" glyph-name="plus1" d="M992 576h-352v352c0 17.672-14.328 32-32 32h-192c-17.672 0-32-14.328-32-32v-352h-352c-17.672 0-32-14.328-32-32v-192c0-17.672 14.328-32 32-32h352v-352c0-17.672 14.328-32 32-32h192c17.672 0 32 14.328 32 32v352h352c17.672 0 32 14.328 32 32v192c0 17.672-14.328 32-32 32z" />
<glyph unicode="&#xea0d;" glyph-name="minus1" d="M0 544v-192c0-17.672 14.328-32 32-32h960c17.672 0 32 14.328 32 32v192c0 17.672-14.328 32-32 32h-960c-17.672 0-32-14.328-32-32z" />
<glyph unicode="&#xea0e;" glyph-name="info" d="M448 656c0 26.4 21.6 48 48 48h32c26.4 0 48-21.6 48-48v-32c0-26.4-21.6-48-48-48h-32c-26.4 0-48 21.6-48 48v32zM640 192h-256v64h64v192h-64v64h192v-256h64zM512 960c-282.77 0-512-229.23-512-512s229.23-512 512-512 512 229.23 512 512-229.23 512-512 512zM512 32c-229.75 0-416 186.25-416 416s186.25 416 416 416 416-186.25 416-416-186.25-416-416-416z" />
<glyph unicode="&#xea0f;" glyph-name="cross" d="M1014.662 137.34c-0.004 0.004-0.008 0.008-0.012 0.010l-310.644 310.65 310.644 310.65c0.004 0.004 0.008 0.006 0.012 0.010 3.344 3.346 5.762 7.254 7.312 11.416 4.246 11.376 1.824 24.682-7.324 33.83l-146.746 146.746c-9.148 9.146-22.45 11.566-33.828 7.32-4.16-1.55-8.070-3.968-11.418-7.31 0-0.004-0.004-0.006-0.008-0.010l-310.648-310.652-310.648 310.65c-0.004 0.004-0.006 0.006-0.010 0.010-3.346 3.342-7.254 5.76-11.414 7.31-11.38 4.248-24.682 1.826-33.83-7.32l-146.748-146.748c-9.148-9.148-11.568-22.452-7.322-33.828 1.552-4.16 3.97-8.072 7.312-11.416 0.004-0.002 0.006-0.006 0.010-0.010l310.65-310.648-310.65-310.652c-0.002-0.004-0.006-0.006-0.008-0.010-3.342-3.346-5.76-7.254-7.314-11.414-4.248-11.376-1.826-24.682 7.322-33.83l146.748-146.746c9.15-9.148 22.452-11.568 33.83-7.322 4.16 1.552 8.070 3.97 11.416 7.312 0.002 0.004 0.006 0.006 0.010 0.010l310.648 310.65 310.648-310.65c0.004-0.002 0.008-0.006 0.012-0.008 3.348-3.344 7.254-5.762 11.414-7.314 11.378-4.246 24.684-1.826 33.828 7.322l146.746 146.748c9.148 9.148 11.57 22.454 7.324 33.83-1.552 4.16-3.97 8.068-7.314 11.414z" />
<glyph unicode="&#xea10;" glyph-name="cancel-circle" d="M512 960c-282.77 0-512-229.23-512-512s229.23-512 512-512 512 229.23 512 512-229.23 512-512 512zM512 32c-229.75 0-416 186.25-416 416s186.25 416 416 416 416-186.25 416-416-186.25-416-416-416zM672 704l-160-160-160 160-96-96 160-160-160-160 96-96 160 160 160-160 96 96-160 160 160 160z" />
<glyph unicode="&#xea11;" glyph-name="checkmark" d="M864 832l-480-480-224 224-160-160 384-384 640 640z" />
<glyph unicode="&#xea41;" glyph-name="circle-up" d="M0 448c0-282.77 229.23-512 512-512s512 229.23 512 512-229.23 512-512 512-512-229.23-512-512zM928 448c0-229.75-186.25-416-416-416s-416 186.25-416 416 186.25 416 416 416 416-186.25 416-416zM706.744 290.744l90.512 90.512-285.256 285.254-285.254-285.256 90.508-90.508 194.746 194.744z" />
<glyph unicode="&#xea43;" glyph-name="circle-down" d="M1024 448c0 282.77-229.23 512-512 512s-512-229.23-512-512 229.23-512 512-512 512 229.23 512 512zM96 448c0 229.75 186.25 416 416 416s416-186.25 416-416-186.25-416-416-416-416 186.25-416 416zM317.256 605.256l-90.512-90.512 285.256-285.254 285.254 285.256-90.508 90.508-194.746-194.744z" />
<glyph unicode="&#xea50;" glyph-name="ctrl" d="M736.014 512c-8.908 0-17.77 3.698-24.096 10.928l-199.918 228.478-199.918-228.478c-11.636-13.3-31.856-14.65-45.154-3.010-13.3 11.638-14.648 31.854-3.010 45.154l224 256c6.076 6.944 14.854 10.928 24.082 10.928s18.006-3.984 24.082-10.928l224-256c11.638-13.3 10.292-33.516-3.010-45.154-6.070-5.312-13.582-7.918-21.058-7.918z" />
</font>
</defs>
</svg>
